/* XPM */
static char *d9833c1549ac43c2c9985849a7f9df590zoIGsHPQx1LexnV[] = {
/* columns rows colors chars-per-pixel */
"64 64 9 1 ",
"  c None",
". c #161C2E",
"X c #387253",
"o c #774352",
"O c #A55A50",
"+ c #529650",
"@ c #7CBB4E",
"# c #CC804B",
"$ c #E0BD60",
/* pixels */
"                                                                ",
"                                                                ",
"                                                                ",
"                                                                ",
"                                                                ",
"                                                                ",
"                                                                ",
"                                                                ",
"                                                                ",
"                                                                ",
"                            ...                                 ",
"                           ......                               ",
"                          ...@@...                              ",
"                          ..@@@@...                             ",
"                          ..@@@@....                            ",
"                           ..@@..+......                        ",
"                         .....++++........                      ",
"                        ......X++++..OOO.....                   ",
"                       ...OO...X+++...OO.......                 ",
"                      ...OOOO..XX++X..OO..###...                ",
"                      ...OOOO...XX+X..#..#####...               ",
"                   .......OOOO..XX+X.####$$$###...              ",
"                  .....#O..###..XXXX.####$$####...              ",
"                 ...O$$#########XXXX#####$$####O...             ",
"                ...OO$$$$###OOooO######$$$$$$$#OO..             ",
"                ..OO$$$$$$#ooooOO####oooo##$$$##O...            ",
"               ...O#$$$$$$ooooO######OOooo######O...            ",
"               ..OO#######oooOO##$$$$$OOooo#####OO..            ",
"               ..O###$$$#.ooOO#$$$$$$$#OOooo####OO...           ",
"              ..OO###$$$#.ooO##$$$$$####OO.o####OO...           ",
"              ..OO######..oOO#####$$#$$#OO..o###OOO..           ",
"              ..OO######.ooOO###$$$$$$$##OO.o#OOOOO..           ",
"             ...OO######.ooO#############OO..oOOOOO...          ",
"            ....OO#####..ooO#############OO..oOOOOO...          ",
"            ....OOO####..ooO#############OO...OOOOO...          ",
"           .....OOO####..oOO##########OOOOO...OOOOO... ....     ",
"           ..X..OOOO###..oOO########OOOOOOO...OOOO.... .....    ",
"           ..X...OOOOOO..oOO#######OOOOOOOO...OOOO.......@@..   ",
"           ..XX..OOOOOO..oOOO######OOOO.......OOO........@@..   ",
"        ......X...OOOOOO.oOOOOO###OOOO.........OO.....++.@@..   ",
"        ..........OOOOOO...OOOOOOOOOO...@@+++.........++@@..    ",
"        ..@@@......OOOOO...OOOOOOOOOO..@@@++++.........++...    ",
"        ..+@@+++....OOOOO..OOOOOOOOO..+@@+.+++...XXXX......     ",
"        ....++++......OOOO..OOOOOOOO..+++...++..+XX.......      ",
"         .....................OOOOOO..+++......++X...           ",
"           ....... ...................+++++..+++X...            ",
"                            ...........+++++XXXXX...            ",
"                               .........XXXXXXXX...             ",
"                                     ......XXXX...              ",
"                                       .........                ",
"                                        ......                  ",
"                                                                ",
"                                                                ",
"                                                                ",
"                                                                ",
"                                                                ",
"                                                                ",
"                                                                ",
"                                                                ",
"                                                                ",
"                                                                ",
"                                                                ",
"                                                                ",
"                                                                "
};
