/* XPM */
static char *_4e520b1e2ab4e4bb60485098bfa3fccdm7zPb9P3Vu9v0bE[] = {
/* columns rows colors chars-per-pixel */
"34 28 10 1 ",
"  c None",
". c #3F3851",
"X c #25667E",
"o c #298A91",
"O c #37AB9C",
"+ c #48C38A",
"@ c #8CA9B5",
"# c #91EA9C",
"$ c #B2D3CF",
"% c #F0F7F4",
/* pixels */
"                                  ",
"                                  ",
"                                  ",
"                                  ",
"                                  ",
"                                  ",
"                                  ",
"                                  ",
"                                  ",
"                                  ",
"             ...        ...       ",
"            .##+........##+.      ",
"            ...O++##+#++O...      ",
"             .O+.O+.O++++o.       ",
"            ..+O....O++.+o.       ",
"           .%.O.##+#.O.%.o.       ",
"           .%%...++...%%.o.       ",
"           .$%@.O++O.@%$.o.       ",
"           ..@........@.O+O.      ",
"           .+..........O++++.     ",
"           .+.XoooooooO++OOO.     ",
"            ..ooO++++++++...      ",
"             .oO+++++++++o.       ",
"             .o++++++++++o.       ",
"             .O+++#+##++OX.       ",
"              .+O......oo.        ",
"               ..      .X.        ",
"                        ..        "
};
